<svg width="55" height="65" viewBox="0 0 55 65" fill="none" xmlns="http://www.w3.org/2000/svg">
<path d="M22.821 44.0253C35.217 44.0253 44.8226 34.9413 44.6748 21.4617C44.6748 9.53475 34.8407 0 22.4447 0C10.0471 0 0 9.53475 0 21.4617C0 28.8908 2.84006 36.8112 8.77095 40.702C8.77095 40.7472 8.76064 40.7814 8.76064 40.831C8.76064 44.0595 6.66597 48.4859 5.84071 50.3117H5.84415C5.77888 50.5101 5.73937 50.7249 5.73937 50.9552C5.73937 51.8588 6.30704 52.5849 7.01126 52.5849C7.11512 52.5849 7.28436 52.5574 7.34528 52.5574C7.36246 52.5574 7.36852 52.5574 7.36675 52.5639C11.7501 51.645 18.2229 45.3156 19.1822 43.8159C20.1664 44.0033 20.8311 44.033 21.6556 44.033C22.0059 44.0319 22.3787 44.0253 22.821 44.0253ZM17.7686 39.2817L15.5692 41.6254C15.059 42.3813 12.8425 44.7548 10.9343 46.2953C12.0962 42.0475 12.0456 40.702 12.0456 40.702L12.207 38.0057L10.3348 36.7793C5.57534 33.6565 3.43607 27.1553 3.43607 21.4628C3.43607 11.9821 11.9631 4.40871 22.4457 4.40871C32.9273 4.40871 41.2405 11.9821 41.2405 21.4628C41.2079 31.9728 33.4108 39.6872 22.9292 39.6872C22.9292 39.6872 21.3292 39.7665 19.6872 39.4547L17.7686 39.2817ZM55 39.263C55 33.2895 53.1811 28.7342 48.6424 25.3161C48.5316 26.9051 48.1786 28.6097 47.7947 30.1072C50.7284 32.7088 51.5657 35.3798 51.5657 39.2629C51.5657 44.0166 49.8395 47.4645 45.8272 50.0991L44.1182 51.1877C44.1182 51.1877 44.2959 56.835 44.5596 58.2641C41.2077 55.1116 40.056 52.4792 40.056 52.4792L38.2491 52.8362C37.5346 52.9694 35.6023 52.9716 35.6023 52.9716C30.9356 52.9716 27.4772 51.5447 24.5272 48.5817C25.3284 48.5189 19.7402 48.5211 19.6156 48.6611C23.0277 54.0074 28.6048 57.3793 35.6022 57.3793C35.9827 57.3793 36.3048 57.3837 36.607 57.3837C37.3198 57.3837 37.8952 57.3584 38.7455 57.1986C39.5768 58.4922 44.2324 64.1891 48.0214 64.9813C48.0197 64.9769 48.0248 64.9769 48.0411 64.9769C48.0918 64.9769 48.2387 65 48.328 65C48.9369 65 49.4281 64.3719 49.4281 63.5907C49.4281 63.3923 49.3929 63.205 49.3379 63.0354H49.3414C48.6285 61.4597 47.5095 56.8548 47.5095 54.0648C47.5095 54.0218 47.4992 53.9921 47.4992 53.9524C52.6254 50.5894 55 45.6826 55 39.263Z" fill="black"/>
</svg>
