<svg width="55" height="65" viewBox="0 0 55 65" fill="none" xmlns="http://www.w3.org/2000/svg">
<path d="M51.5627 10.7306H37.8345V6.51989C37.8345 2.92417 35.522 0 32.6784 0H22.3431C19.4995 0 17.187 2.92417 17.187 6.51989V10.7306H3.43911C1.5494 10.7306 0.0017187 12.6877 0.0017187 15.0772V30.3077H0V34.6543H0.0017187V60.6534C0.0017187 63.043 1.5494 65 3.43911 65H51.5626C53.4523 65 55 63.043 55 60.6534V15.0772C55 12.6877 53.4523 10.7306 51.5626 10.7306H51.5627V10.7306ZM20.6244 6.51989C20.6244 5.32023 21.3943 4.34659 22.3431 4.34659H32.6784C33.6272 4.34659 34.3971 5.32023 34.3971 6.51989V10.7306H20.6244V6.51989ZM3.43916 15.0772H51.5627V30.3077H32.6372V28.0833C32.6372 25.6873 31.0947 23.7367 29.1998 23.7367H25.7761C23.8813 23.7367 22.3388 25.6873 22.3388 28.0833V30.3077H3.43922V15.0772H3.43916ZM29.2024 39.028H25.7752V28.0833H29.1989L29.2024 39.028ZM3.43911 60.6523V34.6532H22.3379V39.027C22.3379 41.4231 23.8804 43.3735 25.7753 43.3735H29.1989C31.0938 43.3735 32.6363 41.4231 32.6363 39.027V34.6532H51.5618V60.6523H3.43911V60.6523Z" fill="black"/>
</svg>
