<svg width="30" height="30" viewBox="0 0 30 30" fill="none" xmlns="http://www.w3.org/2000/svg">
<path d="M19.9999 2.5L17.4999 8.75M11.2499 8.125L12.2724 4.375M24.0774 21.2975L26.1724 5.57875C26.1944 5.4134 26.1605 5.24545 26.0763 5.10147C25.9921 4.95749 25.8623 4.84569 25.7074 4.78375L19.9999 2.5H13.1249L12.2724 4.375L6.24993 2.5L4.01243 4.7375C3.93096 4.81911 3.86941 4.9184 3.83255 5.02767C3.7957 5.13693 3.78453 5.25322 3.79993 5.3675L5.92243 21.2975C6.02411 22.0599 6.30033 22.7886 6.7296 23.4269C7.15887 24.0652 7.72962 24.5958 8.39743 24.9775L8.79743 25.2063C10.6862 26.2856 12.8239 26.8533 14.9993 26.8533C17.1747 26.8533 19.3124 26.2856 21.2012 25.2063L21.6012 24.9775C22.269 24.5958 22.8397 24.0652 23.269 23.4269C23.6983 22.7886 23.9745 22.0599 24.0762 21.2975H24.0774Z" stroke="black" stroke-width="1.5"/>
<path d="M3.75 6.25C6.96375 9.58375 23.0362 9.58375 26.25 6.25" stroke="black" stroke-width="1.5"/>
</svg>
