<svg width="56" height="66" viewBox="0 0 56 66" fill="none" xmlns="http://www.w3.org/2000/svg">
<path d="M51.1552 0.133661L28.4332 7.40757C27.8557 7.59038 26.6019 7.58835 26.0262 7.39741L3.88953 0.14788C1.91377 -0.495011 0 1.1889 0 3.59288V52.9848C0 55.0221 1.30706 56.9701 2.97081 57.5175L25.1083 64.7681C25.7005 64.962 26.4627 65.0697 27.2534 65.0697C27.7956 65.0697 28.5965 65.0199 29.333 64.7823L52.054 57.5083C53.7221 56.9751 55.0352 55.0312 55.0352 52.9858V3.59288C55.036 1.19093 53.1222 -0.499073 51.1551 0.133661H51.1552ZM25.7992 60.7786L3.83534 53.6022C3.66948 53.5484 3.43745 53.1898 3.43745 52.9857V4.23368L25.1083 11.3137C25.318 11.3827 25.5535 11.4366 25.7992 11.4823V60.7787V60.7786ZM51.5985 52.9858C51.5985 53.1858 51.3201 53.5352 51.1551 53.589L29.2368 60.6049V11.3522C29.2686 11.3431 29.3012 11.338 29.333 11.3278L51.5977 4.21032V52.9857H51.5986L51.5985 52.9858ZM34.5004 23.2868C34.6551 23.2868 34.8125 23.2635 34.9672 23.2116L46.9949 19.2111C47.9094 18.9054 48.4422 17.7851 48.1852 16.7055C47.9281 15.6259 46.9734 14.9992 46.0651 15.2988L34.0373 19.2995C33.1229 19.6052 32.5901 20.7254 32.847 21.805C33.0602 22.7018 33.7502 23.2868 34.5004 23.2868V23.2868ZM34.5005 35.4744C34.6552 35.4744 34.8126 35.451 34.9673 35.3991L46.995 31.3986C47.9095 31.0929 48.4423 29.9726 48.1853 28.893C47.9284 27.8134 46.9735 27.1867 46.0652 27.4863L34.0374 31.487C33.123 31.7927 32.5902 32.9129 32.8471 33.9915C33.0603 34.8883 33.7503 35.4744 34.5005 35.4744ZM34.5006 47.6619C34.6553 47.6619 34.8127 47.6385 34.9674 47.5866L46.9951 43.5861C47.9096 43.2804 48.4424 42.1601 48.1854 41.0805C47.9284 40.0009 46.9737 39.3742 46.0653 39.6738L34.0375 43.6745C33.1231 43.9802 32.5903 45.1004 32.8472 46.18C33.0604 47.0758 33.7504 47.6619 34.5006 47.6619V47.6619ZM21.2139 19.2995L9.18624 15.2988C8.27788 14.9992 7.32311 15.6259 7.0661 16.7055C6.8091 17.7851 7.3411 18.9053 8.25634 19.2111L20.2842 23.2116C20.4361 23.262 20.5931 23.2873 20.7508 23.2868C21.501 23.2868 22.191 22.7019 22.4042 21.8051C22.6611 20.7264 22.1292 19.6052 21.2139 19.2995V19.2995ZM21.214 31.4869L9.18634 27.4863C8.27798 27.1867 7.32316 27.8133 7.06621 28.8929C6.80926 29.9725 7.34121 31.0928 8.25645 31.3985L20.2843 35.3991C20.4361 35.4495 20.5932 35.4747 20.7509 35.4742C21.5011 35.4742 22.1912 34.8893 22.4043 33.9925C22.6612 32.9138 22.1293 31.7926 21.214 31.4869V31.4869ZM21.2142 43.6743L9.18645 39.6737C8.27809 39.3741 7.32327 40.0007 7.06632 41.0804C6.80937 42.16 7.34132 43.2802 8.25655 43.586L20.2844 47.5865C20.4362 47.6369 20.5933 47.6622 20.751 47.6617C21.5012 47.6617 22.1913 47.0767 22.4044 46.1799C22.6613 45.1003 22.1294 43.98 21.2142 43.6743V43.6743Z" fill="black"/>
</svg>
