<svg width="55" height="65" viewBox="0 0 55 65" fill="none" xmlns="http://www.w3.org/2000/svg">
<g filter="url(#filter0_i_7_41)">
<path d="M48.9051 0H8.39974C5.47928 0 4.20749 2.1582 4.20749 4.18945V12.2708H1.98997C0.89093 12.2708 0 13.1615 0 14.2605C0 15.3593 0.89093 16.25 1.98997 16.25H4.20749V24.4227H2.17993C1.08082 24.4227 0.189957 25.3135 0.189957 26.4123C0.189957 27.5113 1.08082 28.402 2.17987 28.402H4.20742V36.6184H2.13619C1.03708 36.6184 0.146213 37.5091 0.146213 38.608C0.146213 39.7069 1.03708 40.5976 2.13619 40.5976H4.20742V48.7521H2.13619C1.03708 48.7521 0.146213 49.6428 0.146213 50.7416C0.146213 51.8405 1.03708 52.7312 2.13619 52.7312H4.20742V60.9375C4.20742 64.3033 6.84447 65 8.30419 65H48.9051C52.2716 65 55 62.2721 55 58.9062V6.09375C55 2.72797 52.2725 0 48.9051 0ZM8.27073 60.9375L8.27067 52.7313H10.3876C11.4867 52.7313 12.3776 51.8406 12.3776 50.7417C12.3776 49.6428 11.4867 48.7521 10.3876 48.7521H8.27067V40.5976H10.3876C11.4867 40.5976 12.3776 39.7069 12.3776 38.608C12.3776 37.5092 11.4867 36.6184 10.3876 36.6184H8.27067V28.402H10.4313C11.5305 28.402 12.4213 27.5113 12.4213 26.4123C12.4213 25.3134 11.5305 24.4227 10.4314 24.4227H8.27073V16.25H10.2404C11.3395 16.25 12.2304 15.3593 12.2304 14.2605C12.2304 13.1615 11.3395 12.2708 10.2404 12.2708H8.27073V4.18945C8.27073 4.14172 8.2748 4.10211 8.28089 4.06656C8.32045 4.06389 8.36009 4.06254 8.39974 4.0625H40.7787V60.9375H8.27073ZM50.9368 58.9063C50.9368 60.0276 50.0266 60.9376 48.9051 60.9376H44.8419V4.06256H48.9051C50.0266 4.06256 50.9368 4.97256 50.9368 6.09381V58.9063Z" fill="black"/>
</g>
<path d="M4.20749 12.7708H4.70749V12.2708V4.18945C4.70749 3.2717 4.99565 2.34663 5.58739 1.6592C6.16877 0.983804 7.07461 0.5 8.39974 0.5H48.9051C51.9964 0.5 54.5 3.00414 54.5 6.09375V58.9062C54.5 61.9959 51.9955 64.5 48.9051 64.5H8.30419C7.63776 64.5 6.72671 64.3384 5.99699 63.8226C5.29576 63.327 4.70742 62.468 4.70742 60.9375V52.7312V52.2312H4.20742H2.13619C1.31315 52.2312 0.646213 51.5643 0.646213 50.7416C0.646213 49.919 1.31312 49.2521 2.13619 49.2521H4.20742H4.70742V48.7521V40.5976V40.0976H4.20742H2.13619C1.31314 40.0976 0.646213 39.4307 0.646213 38.608C0.646213 37.7854 1.31314 37.1184 2.13619 37.1184H4.20742H4.70742V36.6184V28.402V27.902H4.20742H2.17987C1.3569 27.902 0.689957 27.2351 0.689957 26.4123C0.689957 25.5897 1.35689 24.9227 2.17993 24.9227H4.20749H4.70749V24.4227V16.25V15.75H4.20749H1.98997C1.16697 15.75 0.5 15.083 0.5 14.2605C0.5 13.4377 1.16699 12.7708 1.98997 12.7708H4.20749ZM7.77073 60.9375L7.77074 61.4375H8.27073H40.7787H41.2787V60.9375V4.0625V3.5625H40.7787L8.39974 3.5625L8.39924 3.5625C8.34853 3.56255 8.29784 3.56428 8.24724 3.5677L7.85459 3.59418L7.78808 3.98207C7.77748 4.04392 7.77073 4.11182 7.77073 4.18945V12.2708V12.7708H8.27073H10.2404C11.0634 12.7708 11.7304 13.4377 11.7304 14.2605C11.7304 15.0831 11.0635 15.75 10.2404 15.75H8.27073H7.77073V16.25V24.4227V24.9227H8.27073H10.4314C11.2544 24.9227 11.9213 25.5897 11.9213 26.4123C11.9213 27.235 11.2544 27.902 10.4313 27.902H8.27067H7.77067V28.402V36.6184V37.1184H8.27067H10.3876C11.2106 37.1184 11.8776 37.7854 11.8776 38.608C11.8776 39.4306 11.2106 40.0976 10.3876 40.0976H8.27067H7.77067V40.5976V48.7521V49.2521H8.27067H10.3876C11.2106 49.2521 11.8776 49.919 11.8776 50.7417C11.8776 51.5644 11.2106 52.2313 10.3876 52.2313H8.27067H7.77066L7.77067 52.7313L7.77073 60.9375ZM44.3419 60.9376V61.4376H44.8419H48.9051C50.3026 61.4376 51.4368 60.3038 51.4368 58.9063V6.09381C51.4368 4.69633 50.3026 3.56256 48.9051 3.56256H44.8419H44.3419V4.06256V60.9376Z" stroke="black"/>
<defs>
<filter id="filter0_i_7_41" x="0" y="0" width="55" height="69" filterUnits="userSpaceOnUse" color-interpolation-filters="sRGB">
<feFlood flood-opacity="0" result="BackgroundImageFix"/>
<feBlend mode="normal" in="SourceGraphic" in2="BackgroundImageFix" result="shape"/>
<feColorMatrix in="SourceAlpha" type="matrix" values="0 0 0 0 0 0 0 0 0 0 0 0 0 0 0 0 0 0 127 0" result="hardAlpha"/>
<feOffset dy="4"/>
<feGaussianBlur stdDeviation="2"/>
<feComposite in2="hardAlpha" operator="arithmetic" k2="-1" k3="1"/>
<feColorMatrix type="matrix" values="0 0 0 0 0 0 0 0 0 0 0 0 0 0 0 0 0 0 0.25 0"/>
<feBlend mode="normal" in2="shape" result="effect1_innerShadow_7_41"/>
</filter>
</defs>
</svg>
