<svg width="55" height="65" viewBox="0 0 55 65" fill="none" xmlns="http://www.w3.org/2000/svg">
<path d="M27.4995 4.06472C33.3394 4.06472 39.5327 9.87797 39.5327 14.2169V24.3733C39.5327 28.2824 38.157 35.7613 34.4675 39.1949C34.0048 39.6253 33.6434 40.1889 33.4178 40.8318C33.1923 41.4746 33.1102 42.1752 33.1795 42.8663C33.3205 44.2736 34.0711 45.49 35.1597 46.0814L50.1257 54.4687C50.2426 54.5317 51.5599 54.7929 51.5599 56.9674L51.5616 60.9345L3.43922 60.9375V56.813C3.43922 55.1973 4.46499 54.6902 4.87512 54.4666L19.9769 46.0438C21.0603 45.4564 21.8075 44.2452 21.9528 42.848C22.099 41.4508 21.6218 40.0637 20.6924 39.1827C17.1198 35.7929 15.4552 28.3414 15.4552 24.3733V14.2169C15.456 9.97152 21.7112 4.06472 27.4995 4.06472ZM27.4995 0C19.9056 0 12.016 7.49015 12.016 14.217V24.3734C12.016 28.8109 13.7296 37.7896 18.5394 42.3521L3.4367 50.776C3.4367 50.776 0 52.5857 0 54.8385V60.9374C0 63.1821 1.53908 65 3.43664 65H51.5624C53.4618 65 55 63.1821 55 60.9374V54.8385C55 52.4506 51.5624 50.776 51.5624 50.776L36.5964 42.3887C41.3607 37.9573 42.9729 29.2519 42.9729 24.3733V14.2169C42.9729 7.49003 35.0926 6.35093e-05 27.4995 6.35093e-05V0Z" fill="black"/>
</svg>
