<svg width="75" height="75" viewBox="0 0 75 75" fill="none" xmlns="http://www.w3.org/2000/svg">
<path d="M73.5374 0C73.0909 0 72.5472 0.126709 71.9191 0.392651L1.99797 30.0623C-0.519215 31.1299 -0.67859 33.1889 1.64407 34.6362L21.4019 46.9432C23.7245 48.3893 26.796 51.4901 28.2269 53.8314L40.071 73.2236C40.7507 74.3357 41.5722 74.8876 42.362 74.8876C43.2351 74.8876 44.0671 74.2173 44.6344 72.8931L74.5359 3.03882C75.3456 1.14382 74.884 0 73.5374 0ZM23.8442 42.7677L7.82937 32.7915L61.561 9.99499L26.9766 45.1653C25.9196 44.2278 24.8462 43.3911 23.8442 42.7677ZM41.9473 67.036L32.3942 51.3973C31.8305 50.4738 31.0864 49.4894 30.2566 48.5121L65.0016 13.1812L41.9473 67.036Z" fill="black"/>
</svg>
