<svg width="55" height="65" viewBox="0 0 55 65" fill="none" xmlns="http://www.w3.org/2000/svg">
<path d="M6.27518 34.5099H36.0551C37.0056 34.5099 37.7738 33.5999 37.7738 32.4787C37.7738 31.3574 37.0056 30.4474 36.0551 30.4474H6.3826L12.6002 23.0994C13.2713 22.3062 13.2713 21.0204 12.6002 20.2272C11.929 19.434 10.841 19.434 10.1699 20.2272L0.0180664 32.5416L10.1699 44.8561C10.5059 45.2532 10.945 45.4512 11.385 45.4512C11.825 45.4512 12.2642 45.2532 12.6002 44.8561C13.2713 44.0629 13.2713 42.7771 12.6002 41.9839L6.27518 34.5099ZM51.5445 0H22.3257C20.4264 0 18.8882 1.81898 18.8882 4.0625V22.3438H22.348V6.53961C22.348 5.18273 23.2796 4.0818 24.4277 4.0818H49.3882C50.5372 4.0818 51.4679 5.18273 51.4679 6.53961L51.522 58.4817C51.522 59.8386 50.5913 60.9395 49.4423 60.9395H24.4286C23.2805 60.9395 22.3489 59.8386 22.3489 58.4817V42.5892L18.8891 42.5943V60.9375C18.8891 63.181 20.4274 65 22.3266 65H51.5445C53.4437 65 54.9828 63.181 54.9828 60.9375V4.0625C54.982 1.81898 53.4429 0 51.5445 0H51.5445Z" fill="black"/>
</svg>
