<svg width="55" height="65" viewBox="0 0 55 65" fill="none" xmlns="http://www.w3.org/2000/svg">
<g clip-path="url(#clip0_5_4)">
<path d="M28.6026 41.9839C27.9305 42.7771 27.9305 44.0629 28.6025 44.8561C28.9385 45.2532 29.3777 45.4512 29.8177 45.4512C30.2577 45.4512 30.6968 45.2532 31.0328 44.8561L41.1846 32.5416L31.0328 20.2262C30.3616 19.433 29.2737 19.433 28.6025 20.2262C27.9305 21.0194 27.9305 22.3052 28.6025 23.0984L34.8192 30.4464H1.71008C0.760474 30.4464 -0.00866699 31.3564 -0.00866699 32.4777C-0.00866699 33.5989 0.760474 34.5089 1.71008 34.5089H34.9275L28.6026 41.9839ZM51.571 0H20.6335C18.7343 0 17.1951 1.81898 17.1951 4.0625V22.3438H20.6558V6.53961C20.6558 5.18273 21.5874 4.0818 22.7355 4.0818H49.4139C50.5638 4.0818 51.4936 5.18273 51.4936 6.53961L51.5477 58.4817C51.5477 59.8386 50.6179 60.9395 49.468 60.9395H22.7364C21.5882 60.9395 20.6567 59.8386 20.6567 58.4817V42.5892L17.196 42.5943V60.9375C17.196 63.181 18.7351 65 20.6344 65H51.5719C53.4702 65 55.0094 63.181 55.0094 60.9375V4.0625C55.0085 1.81898 53.4694 0 51.571 0Z" fill="black"/>
</g>
<defs>
<clipPath id="clip0_5_4">
<rect width="55" height="65" fill="white"/>
</clipPath>
</defs>
</svg>
